M48
; DRILL file KiCad 10.0.6+dfsg-1 date 2026-09-17T20:45:40
; FORMAT={-:-/ absolute / metric / decimal}
; #@! TF.CreationDate,2026-09-17T20:45:40-04:00
; #@! TF.GenerationSoftware,Kicad,Pcbnew,10.0.6+dfsg-1
; #@! TF.FileFunction,Plated,1,4,PTH
FMAT,2
METRIC
; #@! TA.AperFunction,Plated,PTH,ViaDrill
T1C0.300
; #@! TA.AperFunction,Plated,PTH,ComponentDrill
T2C0.889
; #@! TA.AperFunction,Plated,PTH,ComponentDrill
T3C1.000
%
G90
G05
T1
X90.25Y-83.55
X90.25Y-88.05
X90.25Y-93.5
X92.917Y-93.5
X94.15Y-117.45
X95.583Y-93.5
X96.25Y-83.05
X96.65Y-101.55
X97.65Y-104.45
X97.95Y-113.3
X97.95Y-113.975
X97.95Y-114.65
X98.25Y-93.5
X98.25Y-95.05
X98.617Y-113.3
X98.617Y-113.975
X98.617Y-114.65
X99.25Y-104.95
X99.7Y-114.35
X100.35Y-107.05
X100.95Y-97.95
X101.45Y-105.15
X102.0Y-110.9
X102.05Y-98.037
X104.15Y-108.95
X104.55Y-106.75
X105.05Y-117.25
X105.65Y-111.05
X105.75Y-82.05
X108.183Y-96.7
X108.183Y-97.375
X108.183Y-98.05
X108.85Y-96.7
X108.85Y-97.375
X108.85Y-98.05
X109.05Y-99.15
X109.05Y-100.37
X109.05Y-101.59
X109.05Y-102.81
X109.05Y-104.03
X109.05Y-105.25
X109.25Y-95.65
X109.55Y-88.95
X109.85Y-98.05
X110.15Y-92.45
X110.35Y-117.35
X111.05Y-82.05
X111.45Y-95.65
X113.55Y-92.5
X113.85Y-103.65
X113.95Y-107.05
X115.05Y-92.45
X115.05Y-109.1
X116.05Y-82.05
X116.35Y-114.75
X116.45Y-99.45
X117.05Y-118.25
X117.19Y-115.5
X118.25Y-100.45
X118.45Y-88.45
X118.65Y-92.05
X119.15Y-84.35
X119.21Y-98.85
X119.25Y-88.05
X120.25Y-97.15
X121.35Y-98.05
X121.75Y-93.55
X121.85Y-95.25
X123.45Y-95.0
X123.45Y-98.05
X123.65Y-88.45
X123.65Y-92.45
X123.75Y-111.45
X123.77Y-113.2
X123.77Y-115.65
X123.77Y-118.1
X124.95Y-95.177
X124.95Y-98.85
X124.95Y-112.65
X124.95Y-115.1
X125.05Y-93.05
X125.45Y-109.1
X125.65Y-104.95
X125.85Y-113.2
X125.85Y-115.65
X125.85Y-118.1
X126.85Y-100.25
X127.85Y-95.65
X129.95Y-100.3
X129.95Y-107.9
X130.0Y-105.35
X130.1Y-112.95
X130.15Y-110.3
X130.55Y-95.65
X131.75Y-99.25
X131.9Y-95.45
X132.25Y-87.05
X132.5Y-104.35
X133.05Y-98.15
X133.45Y-108.6
X133.55Y-103.65
X133.55Y-116.65
X133.6Y-92.25
X134.1Y-95.6
X134.15Y-110.15
X134.85Y-92.45
X136.25Y-92.45
X139.15Y-92.85
X139.5Y-96.7
X139.5Y-101.8
X139.5Y-106.85
X140.05Y-97.65
X141.25Y-103.25
X141.65Y-98.05
X144.45Y-107.55
X144.75Y-111.15
X146.05Y-117.75
X149.45Y-83.25
X149.85Y-116.65
T2
X112.38Y-99.01
X112.38Y-101.55
X112.38Y-104.09
X112.38Y-106.63
X112.38Y-109.17
X112.38Y-111.71
X112.38Y-114.25
X127.62Y-99.01
X127.62Y-101.55
X127.62Y-104.09
X127.62Y-106.63
X127.62Y-109.17
X127.62Y-111.71
X127.62Y-114.25
T3
X93.25Y-107.412
X93.25Y-109.953
X99.47Y-83.05
X102.01Y-83.05
X104.55Y-83.05
X107.09Y-83.05
X109.63Y-83.05
X112.17Y-83.05
X114.71Y-83.05
X117.25Y-83.05
X121.25Y-83.05
X125.21Y-83.05
X127.75Y-83.05
X130.29Y-83.05
X132.83Y-83.05
X135.37Y-83.05
X137.91Y-83.05
X140.45Y-83.05
X142.99Y-83.05
X149.85Y-92.25
X149.85Y-94.79
X149.85Y-97.33
X149.85Y-99.87
X149.85Y-102.41
X149.85Y-104.95
X149.85Y-109.525
M30
